<mxfile host="app.diagrams.net" agent="Mozilla/5.0 (Windows NT 10.0; Win64; x64) AppleWebKit/537.36 (KHTML, like Gecko) Chrome/130.0.0.0 Safari/537.36" version="24.7.17">
  <diagram name="Página-1" id="q5P00Ea4lJRs1lq0zHtR">
    <mxGraphModel dx="1120" dy="426" grid="1" gridSize="10" guides="1" tooltips="1" connect="1" arrows="1" fold="1" page="1" pageScale="1" pageWidth="827" pageHeight="1169" math="0" shadow="0">
      <root>
        <mxCell id="0" />
        <mxCell id="1" parent="0" />
        <mxCell id="qleC3GfuwHurnXzQcOF3-1" value="&lt;b&gt;&lt;font style=&quot;font-size: 24px;&quot;&gt;1º GB&lt;/font&gt;&lt;/b&gt;" style="rounded=0;whiteSpace=wrap;html=1;" vertex="1" parent="1">
          <mxGeometry x="40" y="110" width="120" height="60" as="geometry" />
        </mxCell>
        <mxCell id="qleC3GfuwHurnXzQcOF3-2" value="&lt;b&gt;&lt;font style=&quot;font-size: 24px;&quot;&gt;4º GB&lt;/font&gt;&lt;/b&gt;" style="rounded=0;whiteSpace=wrap;html=1;" vertex="1" parent="1">
          <mxGeometry x="40" y="20" width="120" height="60" as="geometry" />
        </mxCell>
        <mxCell id="qleC3GfuwHurnXzQcOF3-3" value="&lt;font style=&quot;font-size: 24px;&quot;&gt;&lt;b&gt;3º GB&lt;/b&gt;&lt;/font&gt;" style="rounded=0;whiteSpace=wrap;html=1;" vertex="1" parent="1">
          <mxGeometry x="40" y="210" width="120" height="60" as="geometry" />
        </mxCell>
        <mxCell id="qleC3GfuwHurnXzQcOF3-4" value="&lt;font style=&quot;font-size: 24px;&quot;&gt;&lt;b&gt;1º GA&lt;/b&gt;&lt;/font&gt;" style="rounded=0;whiteSpace=wrap;html=1;" vertex="1" parent="1">
          <mxGeometry x="40" y="300" width="120" height="60" as="geometry" />
        </mxCell>
        <mxCell id="qleC3GfuwHurnXzQcOF3-6" value="" style="endArrow=none;html=1;rounded=0;entryX=1;entryY=0.5;entryDx=0;entryDy=0;exitX=1;exitY=0.5;exitDx=0;exitDy=0;" edge="1" parent="1" source="qleC3GfuwHurnXzQcOF3-1" target="qleC3GfuwHurnXzQcOF3-2">
          <mxGeometry width="50" height="50" relative="1" as="geometry">
            <mxPoint x="270" y="160" as="sourcePoint" />
            <mxPoint x="440" y="200" as="targetPoint" />
            <Array as="points">
              <mxPoint x="220" y="140" />
              <mxPoint x="220" y="100" />
              <mxPoint x="220" y="50" />
            </Array>
          </mxGeometry>
        </mxCell>
        <mxCell id="qleC3GfuwHurnXzQcOF3-7" value="" style="endArrow=none;html=1;rounded=0;entryX=1;entryY=0.5;entryDx=0;entryDy=0;exitX=1;exitY=0.5;exitDx=0;exitDy=0;" edge="1" parent="1">
          <mxGeometry width="50" height="50" relative="1" as="geometry">
            <mxPoint x="160" y="330" as="sourcePoint" />
            <mxPoint x="160" y="240" as="targetPoint" />
            <Array as="points">
              <mxPoint x="220" y="330" />
              <mxPoint x="220" y="290" />
              <mxPoint x="220" y="240" />
            </Array>
          </mxGeometry>
        </mxCell>
        <mxCell id="qleC3GfuwHurnXzQcOF3-8" value="" style="endArrow=none;html=1;rounded=0;" edge="1" parent="1">
          <mxGeometry width="50" height="50" relative="1" as="geometry">
            <mxPoint x="220" y="100" as="sourcePoint" />
            <mxPoint x="250" y="100" as="targetPoint" />
            <Array as="points" />
          </mxGeometry>
        </mxCell>
        <mxCell id="qleC3GfuwHurnXzQcOF3-9" value="" style="endArrow=none;html=1;rounded=0;" edge="1" parent="1">
          <mxGeometry width="50" height="50" relative="1" as="geometry">
            <mxPoint x="220" y="290" as="sourcePoint" />
            <mxPoint x="250" y="290" as="targetPoint" />
            <Array as="points" />
          </mxGeometry>
        </mxCell>
        <mxCell id="qleC3GfuwHurnXzQcOF3-10" value="" style="rounded=0;whiteSpace=wrap;html=1;" vertex="1" parent="1">
          <mxGeometry x="250" y="70" width="120" height="60" as="geometry" />
        </mxCell>
        <mxCell id="qleC3GfuwHurnXzQcOF3-11" value="" style="rounded=0;whiteSpace=wrap;html=1;" vertex="1" parent="1">
          <mxGeometry x="250" y="260" width="120" height="60" as="geometry" />
        </mxCell>
        <mxCell id="qleC3GfuwHurnXzQcOF3-12" value="" style="endArrow=none;html=1;rounded=0;entryX=1;entryY=0.5;entryDx=0;entryDy=0;exitX=1;exitY=0.5;exitDx=0;exitDy=0;" edge="1" parent="1" source="qleC3GfuwHurnXzQcOF3-11">
          <mxGeometry width="50" height="50" relative="1" as="geometry">
            <mxPoint x="370" y="185" as="sourcePoint" />
            <mxPoint x="370" y="95" as="targetPoint" />
            <Array as="points">
              <mxPoint x="430" y="290" />
              <mxPoint x="430" y="145" />
              <mxPoint x="430" y="95" />
            </Array>
          </mxGeometry>
        </mxCell>
        <mxCell id="qleC3GfuwHurnXzQcOF3-13" value="" style="endArrow=none;html=1;rounded=0;" edge="1" parent="1">
          <mxGeometry width="50" height="50" relative="1" as="geometry">
            <mxPoint x="430" y="189.5" as="sourcePoint" />
            <mxPoint x="460" y="189.5" as="targetPoint" />
            <Array as="points" />
          </mxGeometry>
        </mxCell>
        <mxCell id="qleC3GfuwHurnXzQcOF3-14" value="" style="rounded=0;whiteSpace=wrap;html=1;" vertex="1" parent="1">
          <mxGeometry x="460" y="160" width="120" height="60" as="geometry" />
        </mxCell>
        <mxCell id="qleC3GfuwHurnXzQcOF3-15" value="&lt;font style=&quot;font-size: 24px;&quot;&gt;&lt;b&gt;2º GA&lt;/b&gt;&lt;/font&gt;" style="rounded=0;whiteSpace=wrap;html=1;" vertex="1" parent="1">
          <mxGeometry x="991" y="110" width="120" height="60" as="geometry" />
        </mxCell>
        <mxCell id="qleC3GfuwHurnXzQcOF3-16" value="&lt;b&gt;&lt;font style=&quot;font-size: 24px;&quot;&gt;2º GB&lt;/font&gt;&lt;/b&gt;" style="rounded=0;whiteSpace=wrap;html=1;" vertex="1" parent="1">
          <mxGeometry x="991" y="20" width="120" height="60" as="geometry" />
        </mxCell>
        <mxCell id="qleC3GfuwHurnXzQcOF3-17" value="&lt;b&gt;&lt;font style=&quot;font-size: 24px;&quot;&gt;3º GA&lt;/font&gt;&lt;/b&gt;" style="rounded=0;whiteSpace=wrap;html=1;" vertex="1" parent="1">
          <mxGeometry x="991" y="210" width="120" height="60" as="geometry" />
        </mxCell>
        <mxCell id="qleC3GfuwHurnXzQcOF3-18" value="&lt;b&gt;&lt;font style=&quot;font-size: 24px;&quot;&gt;4º GA&lt;/font&gt;&lt;/b&gt;" style="rounded=0;whiteSpace=wrap;html=1;" vertex="1" parent="1">
          <mxGeometry x="991" y="300" width="120" height="60" as="geometry" />
        </mxCell>
        <mxCell id="qleC3GfuwHurnXzQcOF3-19" value="" style="endArrow=none;html=1;rounded=0;exitX=0;exitY=0.5;exitDx=0;exitDy=0;entryX=0;entryY=0.5;entryDx=0;entryDy=0;" edge="1" parent="1" source="qleC3GfuwHurnXzQcOF3-15" target="qleC3GfuwHurnXzQcOF3-16">
          <mxGeometry width="50" height="50" relative="1" as="geometry">
            <mxPoint x="890" y="150" as="sourcePoint" />
            <mxPoint x="920" y="60" as="targetPoint" />
            <Array as="points">
              <mxPoint x="950" y="140" />
              <mxPoint x="950" y="110" />
              <mxPoint x="950" y="50" />
            </Array>
          </mxGeometry>
        </mxCell>
        <mxCell id="qleC3GfuwHurnXzQcOF3-20" value="" style="endArrow=none;html=1;rounded=0;exitX=0;exitY=0.5;exitDx=0;exitDy=0;entryX=0;entryY=0.5;entryDx=0;entryDy=0;" edge="1" parent="1" source="qleC3GfuwHurnXzQcOF3-18" target="qleC3GfuwHurnXzQcOF3-17">
          <mxGeometry width="50" height="50" relative="1" as="geometry">
            <mxPoint x="891" y="335" as="sourcePoint" />
            <mxPoint x="1001" y="240" as="targetPoint" />
            <Array as="points">
              <mxPoint x="951" y="330" />
              <mxPoint x="951" y="295" />
              <mxPoint x="951" y="240" />
            </Array>
          </mxGeometry>
        </mxCell>
        <mxCell id="qleC3GfuwHurnXzQcOF3-21" value="" style="endArrow=none;html=1;rounded=0;" edge="1" parent="1">
          <mxGeometry width="50" height="50" relative="1" as="geometry">
            <mxPoint x="930" y="289.5" as="sourcePoint" />
            <mxPoint x="950" y="290" as="targetPoint" />
            <Array as="points" />
          </mxGeometry>
        </mxCell>
        <mxCell id="qleC3GfuwHurnXzQcOF3-22" value="" style="endArrow=none;html=1;rounded=0;" edge="1" parent="1">
          <mxGeometry width="50" height="50" relative="1" as="geometry">
            <mxPoint x="920" y="89.5" as="sourcePoint" />
            <mxPoint x="950" y="89.5" as="targetPoint" />
            <Array as="points" />
          </mxGeometry>
        </mxCell>
        <mxCell id="qleC3GfuwHurnXzQcOF3-23" value="" style="rounded=0;whiteSpace=wrap;html=1;" vertex="1" parent="1">
          <mxGeometry x="810" y="60" width="120" height="60" as="geometry" />
        </mxCell>
        <mxCell id="qleC3GfuwHurnXzQcOF3-24" value="" style="rounded=0;whiteSpace=wrap;html=1;" vertex="1" parent="1">
          <mxGeometry x="810" y="260" width="120" height="60" as="geometry" />
        </mxCell>
        <mxCell id="qleC3GfuwHurnXzQcOF3-25" value="" style="endArrow=none;html=1;rounded=0;" edge="1" parent="1">
          <mxGeometry width="50" height="50" relative="1" as="geometry">
            <mxPoint x="810" y="290" as="sourcePoint" />
            <mxPoint x="810" y="92.5" as="targetPoint" />
            <Array as="points">
              <mxPoint x="760" y="290" />
              <mxPoint x="760" y="142.5" />
              <mxPoint x="760" y="92.5" />
            </Array>
          </mxGeometry>
        </mxCell>
        <mxCell id="qleC3GfuwHurnXzQcOF3-26" value="" style="endArrow=none;html=1;rounded=0;" edge="1" parent="1">
          <mxGeometry width="50" height="50" relative="1" as="geometry">
            <mxPoint x="730" y="189.5" as="sourcePoint" />
            <mxPoint x="760" y="189.5" as="targetPoint" />
            <Array as="points" />
          </mxGeometry>
        </mxCell>
        <mxCell id="qleC3GfuwHurnXzQcOF3-27" value="" style="rounded=0;whiteSpace=wrap;html=1;" vertex="1" parent="1">
          <mxGeometry x="610" y="160" width="120" height="60" as="geometry" />
        </mxCell>
        <mxCell id="qleC3GfuwHurnXzQcOF3-30" value="&lt;font style=&quot;font-size: 24px;&quot;&gt;&lt;b style=&quot;background-color: rgb(102, 178, 255);&quot;&gt;FASE FINAL&lt;/b&gt;&lt;/font&gt;" style="text;html=1;align=center;verticalAlign=middle;resizable=0;points=[];autosize=1;strokeColor=none;fillColor=none;" vertex="1" parent="1">
          <mxGeometry x="510" y="60" width="160" height="40" as="geometry" />
        </mxCell>
      </root>
    </mxGraphModel>
  </diagram>
</mxfile>
